<svg xmlns="http://www.w3.org/2000/svg" xmlns:xlink="http://www.w3.org/1999/xlink" width="500" zoomAndPan="magnify" viewBox="0 0 375 374.999991" height="500" preserveAspectRatio="xMidYMid meet" version="1.0"><defs><clipPath id="d59eed4102"><path d="M 140 112.5 L 200 112.5 L 200 155 L 140 155 Z M 140 112.5 " clip-rule="nonzero"/></clipPath><clipPath id="0ccb27d5f6"><path d="M 112.5 187 L 190 187 L 190 258 L 112.5 258 Z M 112.5 187 " clip-rule="nonzero"/></clipPath><clipPath id="92636928ca"><path d="M 112.5 132 L 135 132 L 135 183 L 112.5 183 Z M 112.5 132 " clip-rule="nonzero"/></clipPath><clipPath id="83d305b58b"><path d="M 192 207 L 262.5 207 L 262.5 262.5 L 192 262.5 Z M 192 207 " clip-rule="nonzero"/></clipPath><clipPath id="268c36ae79"><path d="M 83 22.789062 L 215 22.789062 L 215 117 L 83 117 Z M 83 22.789062 " clip-rule="nonzero"/></clipPath><clipPath id="b1b5719bd3"><path d="M 22.789062 187 L 192 187 L 192 342 L 22.789062 342 Z M 22.789062 187 " clip-rule="nonzero"/></clipPath><clipPath id="19040dc83e"><path d="M 22.789062 66 L 73 66 L 73 177 L 22.789062 177 Z M 22.789062 66 " clip-rule="nonzero"/></clipPath><clipPath id="839355cc4e"><path d="M 198 231 L 352.039062 231 L 352.039062 352.039062 L 198 352.039062 Z M 198 231 " clip-rule="nonzero"/></clipPath></defs><g clip-path="url(#d59eed4102)"><path fill="#ffffff" d="M 195 155 L 145 155 C 142.25 155 140 152.75 140 150 L 140 130 C 140 127.25 142.25 125 145 125 L 155.199219 125 C 156.398438 117.925781 162.574219 112.5 170 112.5 C 177.425781 112.5 183.601562 117.925781 184.800781 125 L 195 125 C 197.75 125 200 127.25 200 130 L 200 150 C 200 152.75 197.75 155 195 155 Z M 145 130 L 145 150 L 195 150 L 195 130 L 182.5 130 C 181.125 130 180 128.875 180 127.5 C 180 121.976562 175.523438 117.5 170 117.5 C 164.476562 117.5 160 121.976562 160 127.5 C 160 128.875 158.875 130 157.5 130 Z M 185 127.5 Z M 185 127.5 " fill-opacity="1" fill-rule="nonzero"/></g><g clip-path="url(#0ccb27d5f6)"><path fill="#ffffff" d="M 186.875 257.5 L 125 257.5 C 118.101562 257.5 112.5 251.898438 112.5 245 L 112.5 190 C 112.5 188.625 113.625 187.5 115 187.5 C 116.375 187.5 117.5 188.625 117.5 190 L 117.5 245 C 117.5 249.125 120.875 252.5 125 252.5 L 186.875 252.5 C 188.25 252.5 189.375 253.625 189.375 255 C 189.375 256.375 188.25 257.5 186.875 257.5 Z M 186.875 257.5 " fill-opacity="1" fill-rule="nonzero"/></g><g clip-path="url(#92636928ca)"><path fill="#ffffff" d="M 115 182.5 C 113.625 182.5 112.5 181.375 112.5 180 L 112.5 145 C 112.5 138.101562 118.101562 132.5 125 132.5 L 132.5 132.5 C 133.875 132.5 135 133.625 135 135 C 135 136.375 133.875 137.5 132.5 137.5 L 125 137.5 C 120.875 137.5 117.5 140.875 117.5 145 L 117.5 180 C 117.5 181.375 116.375 182.5 115 182.5 Z M 115 182.5 " fill-opacity="1" fill-rule="nonzero"/></g><path fill="#ffffff" d="M 225 172.5 C 223.625 172.5 222.5 171.375 222.5 170 L 222.5 145 C 222.5 140.875 219.125 137.5 215 137.5 L 207.5 137.5 C 206.125 137.5 205 136.375 205 135 C 205 133.625 206.125 132.5 207.5 132.5 L 215 132.5 C 221.898438 132.5 227.5 138.101562 227.5 145 L 227.5 170 C 227.5 171.375 226.375 172.5 225 172.5 Z M 225 172.5 " fill-opacity="1" fill-rule="nonzero"/><path fill="#ffffff" d="M 185.074219 247.5 L 127.5 247.5 C 124.75 247.5 122.5 245.25 122.5 242.5 L 122.5 227.5 C 122.5 226.125 123.625 225 125 225 C 126.375 225 127.5 226.125 127.5 227.5 L 127.5 242.5 L 185.074219 242.5 C 186.449219 242.5 187.574219 243.625 187.574219 245 C 187.574219 246.375 186.449219 247.5 185.074219 247.5 Z M 185.074219 247.5 " fill-opacity="1" fill-rule="nonzero"/><path fill="#ffffff" d="M 125 220 C 123.625 220 122.5 218.875 122.5 217.5 L 122.5 147.5 C 122.5 144.75 124.75 142.5 127.5 142.5 L 132.5 142.5 C 133.875 142.5 135 143.625 135 145 C 135 146.375 133.875 147.5 132.5 147.5 L 127.5 147.5 L 127.5 217.5 C 127.5 218.875 126.375 220 125 220 Z M 125 220 " fill-opacity="1" fill-rule="nonzero"/><path fill="#ffffff" d="M 215 172.5 C 213.625 172.5 212.5 171.375 212.5 170 L 212.5 147.5 L 207.5 147.5 C 206.125 147.5 205 146.375 205 145 C 205 143.625 206.125 142.5 207.5 142.5 L 212.5 142.5 C 215.25 142.5 217.5 144.75 217.5 147.5 L 217.5 170 C 217.5 171.375 216.375 172.5 215 172.5 Z M 215 172.5 " fill-opacity="1" fill-rule="nonzero"/><path fill="#ffffff" d="M 160 192.5 L 140 192.5 C 138.625 192.5 137.5 191.375 137.5 190 L 137.5 170 C 137.5 168.625 138.625 167.5 140 167.5 L 149.898438 167.5 C 151.273438 167.5 152.398438 168.625 152.398438 170 C 152.398438 171.375 151.273438 172.5 149.898438 172.5 L 142.5 172.5 L 142.5 187.5 L 158.101562 187.5 C 158.550781 186.976562 159.25 186.625 160 186.625 C 161.375 186.625 162.5 187.75 162.5 189.125 L 162.5 190 C 162.5 191.375 161.375 192.5 160 192.5 Z M 160 192.5 " fill-opacity="1" fill-rule="nonzero"/><path fill="#ffffff" d="M 152.5 185 C 151.851562 185 151.199219 184.75 150.726562 184.273438 L 145.726562 179.273438 C 144.75 178.300781 144.75 176.726562 145.726562 175.75 C 146.699219 174.773438 148.273438 174.773438 149.25 175.75 L 152.324219 178.824219 L 163.074219 165.925781 C 163.949219 164.875 165.523438 164.726562 166.601562 165.601562 C 167.648438 166.476562 167.800781 168.050781 166.925781 169.125 L 154.425781 184.125 C 153.976562 184.675781 153.324219 185 152.625 185.023438 C 152.601562 185.023438 152.550781 185.023438 152.523438 185.023438 Z M 152.5 185 " fill-opacity="1" fill-rule="nonzero"/><path fill="#ffffff" d="M 160 230 L 140 230 C 138.625 230 137.5 228.875 137.5 227.5 L 137.5 207.5 C 137.5 206.125 138.625 205 140 205 L 149.898438 205 C 151.273438 205 152.398438 206.125 152.398438 207.5 C 152.398438 208.875 151.273438 210 149.898438 210 L 142.5 210 L 142.5 225 L 158.101562 225 C 158.550781 224.476562 159.25 224.125 160 224.125 C 161.375 224.125 162.5 225.25 162.5 226.625 L 162.5 227.5 C 162.5 228.875 161.375 230 160 230 Z M 160 230 " fill-opacity="1" fill-rule="nonzero"/><path fill="#ffffff" d="M 152.5 222.5 C 151.851562 222.5 151.199219 222.25 150.726562 221.773438 L 145.726562 216.773438 C 144.75 215.800781 144.75 214.226562 145.726562 213.25 C 146.699219 212.273438 148.273438 212.273438 149.25 213.25 L 152.324219 216.324219 L 163.074219 203.425781 C 163.949219 202.375 165.523438 202.226562 166.601562 203.101562 C 167.648438 203.976562 167.800781 205.550781 166.925781 206.625 L 154.425781 221.625 C 153.976562 222.175781 153.324219 222.5 152.625 222.523438 C 152.601562 222.523438 152.550781 222.523438 152.523438 222.523438 Z M 152.5 222.5 " fill-opacity="1" fill-rule="nonzero"/><g clip-path="url(#83d305b58b)"><path fill="#ffffff" d="M 251.976562 262.5 L 235 262.5 C 233.625 262.5 232.5 261.375 232.5 260 C 232.5 258.625 233.625 257.5 235 257.5 L 251.976562 257.5 C 252.925781 257.5 253.800781 256.976562 254.226562 256.125 C 256.398438 251.875 257.5 247.300781 257.5 242.5 C 257.5 233.949219 253.824219 225.773438 247.425781 220.074219 C 240.949219 214.300781 232.574219 211.699219 223.875 212.699219 C 210.226562 214.300781 199.226562 225.351562 197.675781 239 C 197 244.976562 198.074219 250.898438 200.773438 256.125 C 201.199219 256.949219 202.074219 257.5 203.023438 257.5 L 225 257.5 C 226.375 257.5 227.5 258.625 227.5 260 C 227.5 261.375 226.375 262.5 225 262.5 L 203.023438 262.5 C 200.199219 262.5 197.648438 260.949219 196.324219 258.425781 C 193.175781 252.300781 191.925781 245.398438 192.699219 238.449219 C 194.5 222.5 207.375 209.601562 223.300781 207.75 C 233.300781 206.601562 243.300781 209.726562 250.75 216.351562 C 258.226562 223 262.5 232.523438 262.5 242.5 C 262.5 248.101562 261.226562 253.449219 258.675781 258.398438 C 257.425781 260.875 254.800781 262.5 251.976562 262.5 Z M 251.976562 262.5 " fill-opacity="1" fill-rule="nonzero"/></g><path fill="#ffffff" d="M 242.699219 205.324219 C 242.398438 205.324219 242.101562 205.273438 241.824219 205.175781 C 240.523438 204.699219 239.875 203.25 240.351562 201.949219 L 242.625 195.875 C 242.925781 195.101562 242.824219 194.25 242.351562 193.574219 C 241.875 192.898438 241.125 192.5 240.273438 192.5 L 214.726562 192.5 C 213.875 192.5 213.125 192.898438 212.648438 193.574219 C 212.175781 194.25 212.074219 195.101562 212.375 195.875 L 214.648438 201.949219 C 215.125 203.25 214.476562 204.675781 213.175781 205.175781 C 211.875 205.675781 210.449219 205 209.949219 203.699219 L 207.675781 197.625 C 206.824219 195.324219 207.125 192.75 208.523438 190.726562 C 209.925781 188.699219 212.25 187.5 214.699219 187.5 L 240.25 187.5 C 242.726562 187.5 245.023438 188.699219 246.425781 190.726562 C 247.824219 192.75 248.148438 195.324219 247.273438 197.625 L 245 203.699219 C 244.625 204.699219 243.675781 205.324219 242.648438 205.324219 Z M 242.699219 205.324219 " fill-opacity="1" fill-rule="nonzero"/><path fill="#ffffff" d="M 251.601562 210.023438 C 251.300781 210.023438 251 209.976562 250.726562 209.875 C 249.425781 209.398438 248.773438 207.949219 249.273438 206.648438 L 252 199.398438 C 253.449219 195.5 252.925781 191.300781 250.550781 187.875 C 248.175781 184.449219 244.425781 182.5 240.273438 182.5 L 214.726562 182.5 C 210.574219 182.5 206.824219 184.449219 204.449219 187.875 C 202.074219 191.300781 201.550781 195.5 203.023438 199.398438 L 205.75 206.648438 C 206.25 207.949219 205.574219 209.375 204.300781 209.875 C 203 210.351562 201.574219 209.699219 201.074219 208.425781 L 198.351562 201.175781 C 196.324219 195.800781 197.074219 189.75 200.351562 185.050781 C 203.625 180.351562 209 177.523438 214.726562 177.523438 L 240.273438 177.523438 C 246 177.523438 251.398438 180.351562 254.648438 185.050781 C 257.925781 189.773438 258.675781 195.800781 256.648438 201.175781 L 253.925781 208.425781 C 253.550781 209.425781 252.601562 210.050781 251.574219 210.050781 Z M 251.601562 210.023438 " fill-opacity="1" fill-rule="nonzero"/><path fill="#ffffff" d="M 200 177.5 L 172.5 177.5 C 171.125 177.5 170 176.375 170 175 C 170 173.625 171.125 172.5 172.5 172.5 L 200 172.5 C 201.375 172.5 202.5 173.625 202.5 175 C 202.5 176.375 201.375 177.5 200 177.5 Z M 200 177.5 " fill-opacity="1" fill-rule="nonzero"/><path fill="#ffffff" d="M 182.5 187.5 L 172.5 187.5 C 171.125 187.5 170 186.375 170 185 C 170 183.625 171.125 182.5 172.5 182.5 L 182.5 182.5 C 183.875 182.5 185 183.625 185 185 C 185 186.375 183.875 187.5 182.5 187.5 Z M 182.5 187.5 " fill-opacity="1" fill-rule="nonzero"/><path fill="#ffffff" d="M 192.5 215 L 172.5 215 C 171.125 215 170 213.875 170 212.5 C 170 211.125 171.125 210 172.5 210 L 192.5 210 C 193.875 210 195 211.125 195 212.5 C 195 213.875 193.875 215 192.5 215 Z M 192.5 215 " fill-opacity="1" fill-rule="nonzero"/><path fill="#ffffff" d="M 182.5 225 L 172.5 225 C 171.125 225 170 223.875 170 222.5 C 170 221.125 171.125 220 172.5 220 L 182.5 220 C 183.875 220 185 221.125 185 222.5 C 185 223.875 183.875 225 182.5 225 Z M 182.5 225 " fill-opacity="1" fill-rule="nonzero"/><g clip-path="url(#268c36ae79)"><path fill="#393737" d="M 203.964844 116.121094 L 94.160156 116.121094 C 88.121094 116.121094 83.179688 111.179688 83.179688 105.140625 L 83.179688 61.21875 C 83.179688 55.179688 88.121094 50.238281 94.160156 50.238281 L 116.5625 50.238281 C 119.195312 34.703125 132.757812 22.789062 149.0625 22.789062 C 165.371094 22.789062 178.929688 34.703125 181.566406 50.238281 L 203.964844 50.238281 C 210.003906 50.238281 214.945312 55.179688 214.945312 61.21875 L 214.945312 105.140625 C 214.945312 111.179688 210.003906 116.121094 203.964844 116.121094 Z M 94.160156 61.21875 L 94.160156 105.140625 L 203.964844 105.140625 L 203.964844 61.21875 L 176.515625 61.21875 C 173.496094 61.21875 171.023438 58.75 171.023438 55.730469 C 171.023438 43.597656 161.195312 33.769531 149.0625 33.769531 C 136.929688 33.769531 127.101562 43.597656 127.101562 55.730469 C 127.101562 58.75 124.632812 61.21875 121.613281 61.21875 Z M 182.003906 55.730469 Z M 182.003906 55.730469 " fill-opacity="1" fill-rule="nonzero"/></g><g clip-path="url(#b1b5719bd3)"><path fill="#393737" d="M 186.121094 341.222656 L 50.238281 341.222656 C 35.085938 341.222656 22.789062 328.925781 22.789062 313.769531 L 22.789062 192.984375 C 22.789062 189.964844 25.257812 187.496094 28.277344 187.496094 C 31.296875 187.496094 33.769531 189.964844 33.769531 192.984375 L 33.769531 313.769531 C 33.769531 322.828125 41.179688 330.242188 50.238281 330.242188 L 186.121094 330.242188 C 189.140625 330.242188 191.613281 332.710938 191.613281 335.730469 C 191.613281 338.75 189.140625 341.222656 186.121094 341.222656 Z M 186.121094 341.222656 " fill-opacity="1" fill-rule="nonzero"/></g><g clip-path="url(#19040dc83e)"><path fill="#393737" d="M 28.277344 176.515625 C 25.257812 176.515625 22.789062 174.042969 22.789062 171.023438 L 22.789062 94.160156 C 22.789062 79.007812 35.085938 66.710938 50.238281 66.710938 L 66.710938 66.710938 C 69.730469 66.710938 72.199219 69.179688 72.199219 72.199219 C 72.199219 75.21875 69.730469 77.691406 66.710938 77.691406 L 50.238281 77.691406 C 41.179688 77.691406 33.769531 85.101562 33.769531 94.160156 L 33.769531 171.023438 C 33.769531 174.042969 31.296875 176.515625 28.277344 176.515625 Z M 28.277344 176.515625 " fill-opacity="1" fill-rule="nonzero"/></g><path fill="#393737" d="M 269.847656 154.554688 C 266.828125 154.554688 264.359375 152.082031 264.359375 149.0625 L 264.359375 94.160156 C 264.359375 85.101562 256.945312 77.691406 247.886719 77.691406 L 231.417969 77.691406 C 228.398438 77.691406 225.925781 75.21875 225.925781 72.199219 C 225.925781 69.179688 228.398438 66.710938 231.417969 66.710938 L 247.886719 66.710938 C 263.042969 66.710938 275.339844 79.007812 275.339844 94.160156 L 275.339844 149.0625 C 275.339844 152.082031 272.867188 154.554688 269.847656 154.554688 Z M 269.847656 154.554688 " fill-opacity="1" fill-rule="nonzero"/><path fill="#393737" d="M 182.171875 319.261719 L 55.730469 319.261719 C 49.691406 319.261719 44.75 314.320312 44.75 308.28125 L 44.75 275.339844 C 44.75 272.320312 47.21875 269.847656 50.238281 269.847656 C 53.257812 269.847656 55.730469 272.320312 55.730469 275.339844 L 55.730469 308.28125 L 182.171875 308.28125 C 185.191406 308.28125 187.660156 310.75 187.660156 313.769531 C 187.660156 316.789062 185.191406 319.261719 182.171875 319.261719 Z M 182.171875 319.261719 " fill-opacity="1" fill-rule="nonzero"/><path fill="#393737" d="M 50.238281 258.867188 C 47.21875 258.867188 44.75 256.398438 44.75 253.378906 L 44.75 99.652344 C 44.75 93.613281 49.691406 88.671875 55.730469 88.671875 L 66.710938 88.671875 C 69.730469 88.671875 72.199219 91.140625 72.199219 94.160156 C 72.199219 97.179688 69.730469 99.652344 66.710938 99.652344 L 55.730469 99.652344 L 55.730469 253.378906 C 55.730469 256.398438 53.257812 258.867188 50.238281 258.867188 Z M 50.238281 258.867188 " fill-opacity="1" fill-rule="nonzero"/><path fill="#393737" d="M 247.886719 154.554688 C 244.867188 154.554688 242.398438 152.082031 242.398438 149.0625 L 242.398438 99.652344 L 231.417969 99.652344 C 228.398438 99.652344 225.925781 97.179688 225.925781 94.160156 C 225.925781 91.140625 228.398438 88.671875 231.417969 88.671875 L 242.398438 88.671875 C 248.4375 88.671875 253.378906 93.613281 253.378906 99.652344 L 253.378906 149.0625 C 253.378906 152.082031 250.90625 154.554688 247.886719 154.554688 Z M 247.886719 154.554688 " fill-opacity="1" fill-rule="nonzero"/><path fill="#ff66c4" d="M 127.101562 198.476562 L 83.179688 198.476562 C 80.160156 198.476562 77.691406 196.003906 77.691406 192.984375 L 77.691406 149.0625 C 77.691406 146.042969 80.160156 143.574219 83.179688 143.574219 L 104.921875 143.574219 C 107.941406 143.574219 110.414062 146.042969 110.414062 149.0625 C 110.414062 152.082031 107.941406 154.554688 104.921875 154.554688 L 88.671875 154.554688 L 88.671875 187.496094 L 122.929688 187.496094 C 123.917969 186.34375 125.457031 185.574219 127.101562 185.574219 C 130.121094 185.574219 132.59375 188.042969 132.59375 191.0625 L 132.59375 192.984375 C 132.59375 196.003906 130.121094 198.476562 127.101562 198.476562 Z M 127.101562 198.476562 " fill-opacity="1" fill-rule="nonzero"/><path fill="#ff66c4" d="M 110.632812 182.003906 C 109.203125 182.003906 107.777344 181.457031 106.734375 180.414062 L 95.753906 169.433594 C 93.613281 167.292969 93.613281 163.832031 95.753906 161.691406 C 97.894531 159.550781 101.355469 159.550781 103.496094 161.691406 L 110.246094 168.445312 L 133.855469 140.113281 C 135.777344 137.808594 139.234375 137.480469 141.597656 139.402344 C 143.902344 141.324219 144.234375 144.78125 142.3125 147.140625 L 114.859375 180.082031 C 113.871094 181.292969 112.445312 182.003906 110.90625 182.058594 C 110.851562 182.058594 110.742188 182.058594 110.6875 182.058594 Z M 110.632812 182.003906 " fill-opacity="1" fill-rule="nonzero"/><path fill="#ff66c4" d="M 127.101562 280.828125 L 83.179688 280.828125 C 80.160156 280.828125 77.691406 278.359375 77.691406 275.339844 L 77.691406 231.417969 C 77.691406 228.398438 80.160156 225.925781 83.179688 225.925781 L 104.921875 225.925781 C 107.941406 225.925781 110.414062 228.398438 110.414062 231.417969 C 110.414062 234.4375 107.941406 236.90625 104.921875 236.90625 L 88.671875 236.90625 L 88.671875 269.847656 L 122.929688 269.847656 C 123.917969 268.695312 125.457031 267.925781 127.101562 267.925781 C 130.121094 267.925781 132.59375 270.398438 132.59375 273.417969 L 132.59375 275.339844 C 132.59375 278.359375 130.121094 280.828125 127.101562 280.828125 Z M 127.101562 280.828125 " fill-opacity="1" fill-rule="nonzero"/><path fill="#ff66c4" d="M 110.632812 264.359375 C 109.203125 264.359375 107.777344 263.808594 106.734375 262.765625 L 95.753906 251.785156 C 93.613281 249.644531 93.613281 246.1875 95.753906 244.042969 C 97.894531 241.902344 101.355469 241.902344 103.496094 244.042969 L 110.246094 250.796875 L 133.855469 222.46875 C 135.777344 220.164062 139.234375 219.832031 141.597656 221.753906 C 143.902344 223.675781 144.234375 227.136719 142.3125 229.496094 L 114.859375 262.4375 C 113.871094 263.644531 112.445312 264.359375 110.90625 264.414062 C 110.851562 264.414062 110.742188 264.414062 110.6875 264.414062 Z M 110.632812 264.359375 " fill-opacity="1" fill-rule="nonzero"/><g clip-path="url(#839355cc4e)"><path fill="#ff66c4" d="M 329.089844 352.203125 L 291.808594 352.203125 C 288.789062 352.203125 286.320312 349.730469 286.320312 346.710938 C 286.320312 343.691406 288.789062 341.222656 291.808594 341.222656 L 329.089844 341.222656 C 331.175781 341.222656 333.097656 340.070312 334.03125 338.203125 C 338.804688 328.867188 341.222656 318.820312 341.222656 308.28125 C 341.222656 289.503906 333.152344 271.550781 319.097656 259.035156 C 304.875 246.351562 286.484375 240.640625 267.378906 242.835938 C 237.402344 246.351562 213.246094 270.617188 209.839844 300.59375 C 208.359375 313.714844 210.71875 326.726562 216.648438 338.203125 C 217.582031 340.015625 219.503906 341.222656 221.589844 341.222656 L 269.847656 341.222656 C 272.867188 341.222656 275.339844 343.691406 275.339844 346.710938 C 275.339844 349.730469 272.867188 352.203125 269.847656 352.203125 L 221.589844 352.203125 C 215.386719 352.203125 209.785156 348.796875 206.875 343.253906 C 199.957031 329.800781 197.214844 314.648438 198.914062 299.386719 C 202.867188 264.359375 231.144531 236.027344 266.117188 231.964844 C 288.078125 229.441406 310.039062 236.304688 326.398438 250.851562 C 342.8125 265.457031 352.203125 286.375 352.203125 308.28125 C 352.203125 320.578125 349.402344 332.328125 343.800781 343.199219 C 341.058594 348.632812 335.292969 352.203125 329.089844 352.203125 Z M 329.089844 352.203125 " fill-opacity="1" fill-rule="nonzero"/></g><path fill="#ff66c4" d="M 308.71875 226.640625 C 308.0625 226.640625 307.402344 226.53125 306.796875 226.3125 C 303.945312 225.269531 302.515625 222.082031 303.558594 219.230469 L 308.554688 205.886719 C 309.214844 204.1875 308.996094 202.320312 307.953125 200.835938 C 306.90625 199.355469 305.261719 198.476562 303.394531 198.476562 L 247.285156 198.476562 C 245.417969 198.476562 243.769531 199.355469 242.726562 200.835938 C 241.683594 202.320312 241.464844 204.1875 242.125 205.886719 L 247.121094 219.230469 C 248.164062 222.082031 246.734375 225.214844 243.878906 226.3125 C 241.023438 227.410156 237.894531 225.925781 236.796875 223.070312 L 231.800781 209.730469 C 229.933594 204.679688 230.59375 199.023438 233.667969 194.578125 C 236.742188 190.128906 241.847656 187.496094 247.230469 187.496094 L 303.339844 187.496094 C 308.773438 187.496094 313.824219 190.128906 316.898438 194.578125 C 319.976562 199.023438 320.6875 204.679688 318.765625 209.730469 L 313.769531 223.070312 C 312.949219 225.269531 310.859375 226.640625 308.609375 226.640625 Z M 308.71875 226.640625 " fill-opacity="1" fill-rule="nonzero"/><path fill="#ff66c4" d="M 328.265625 236.960938 C 327.605469 236.960938 326.949219 236.851562 326.34375 236.632812 C 323.488281 235.589844 322.0625 232.40625 323.160156 229.550781 L 329.144531 213.628906 C 332.328125 205.0625 331.175781 195.839844 325.960938 188.320312 C 320.742188 180.796875 312.507812 176.515625 303.394531 176.515625 L 247.285156 176.515625 C 238.171875 176.515625 229.933594 180.796875 224.71875 188.320312 C 219.503906 195.839844 218.351562 205.0625 221.589844 213.628906 L 227.574219 229.550781 C 228.671875 232.40625 227.191406 235.535156 224.390625 236.632812 C 221.535156 237.675781 218.40625 236.25 217.308594 233.449219 L 211.324219 217.527344 C 206.875 205.722656 208.523438 192.4375 215.714844 182.113281 C 222.90625 171.792969 234.710938 165.589844 247.285156 165.589844 L 303.394531 165.589844 C 315.96875 165.589844 327.824219 171.792969 334.964844 182.113281 C 342.15625 192.492188 343.800781 205.722656 339.355469 217.527344 L 333.371094 233.449219 C 332.546875 235.644531 330.460938 237.015625 328.210938 237.015625 Z M 328.265625 236.960938 " fill-opacity="1" fill-rule="nonzero"/><path fill="#393737" d="M 214.945312 165.535156 L 154.554688 165.535156 C 151.535156 165.535156 149.0625 163.0625 149.0625 160.042969 C 149.0625 157.023438 151.535156 154.554688 154.554688 154.554688 L 214.945312 154.554688 C 217.964844 154.554688 220.4375 157.023438 220.4375 160.042969 C 220.4375 163.0625 217.964844 165.535156 214.945312 165.535156 Z M 214.945312 165.535156 " fill-opacity="1" fill-rule="nonzero"/><path fill="#393737" d="M 176.515625 187.496094 L 154.554688 187.496094 C 151.535156 187.496094 149.0625 185.023438 149.0625 182.003906 C 149.0625 178.984375 151.535156 176.515625 154.554688 176.515625 L 176.515625 176.515625 C 179.535156 176.515625 182.003906 178.984375 182.003906 182.003906 C 182.003906 185.023438 179.535156 187.496094 176.515625 187.496094 Z M 176.515625 187.496094 " fill-opacity="1" fill-rule="nonzero"/><path fill="#393737" d="M 198.476562 247.886719 L 154.554688 247.886719 C 151.535156 247.886719 149.0625 245.417969 149.0625 242.398438 C 149.0625 239.378906 151.535156 236.90625 154.554688 236.90625 L 198.476562 236.90625 C 201.496094 236.90625 203.964844 239.378906 203.964844 242.398438 C 203.964844 245.417969 201.496094 247.886719 198.476562 247.886719 Z M 198.476562 247.886719 " fill-opacity="1" fill-rule="nonzero"/><path fill="#393737" d="M 176.515625 269.847656 L 154.554688 269.847656 C 151.535156 269.847656 149.0625 267.378906 149.0625 264.359375 C 149.0625 261.339844 151.535156 258.867188 154.554688 258.867188 L 176.515625 258.867188 C 179.535156 258.867188 182.003906 261.339844 182.003906 264.359375 C 182.003906 267.378906 179.535156 269.847656 176.515625 269.847656 Z M 176.515625 269.847656 " fill-opacity="1" fill-rule="nonzero"/></svg>