<?xml version="1.0" encoding="UTF-8"?>
<svg id="Capa_2" data-name="Capa 2" xmlns="http://www.w3.org/2000/svg" viewBox="0 0 220.27 283.46">
  <defs>
    <style>
      .cls-1 {
        fill: #a29e9b;
      }

      .cls-1, .cls-2, .cls-3, .cls-4, .cls-5, .cls-6, .cls-7, .cls-8, .cls-9, .cls-10, .cls-11, .cls-12 {
        stroke-width: 0px;
      }

      .cls-2 {
        fill: #c3edf5;
      }

      .cls-3 {
        fill: #b2afac;
      }

      .cls-4 {
        fill: #1d1e1c;
      }

      .cls-13 {
        fill: none;
        stroke: #1d1e1c;
        stroke-miterlimit: 10;
      }

      .cls-5 {
        fill: #9e9a99;
      }

      .cls-6 {
        fill: #fff;
      }

      .cls-7 {
        fill: #b5b1ad;
      }

      .cls-8 {
        fill: #acacaa;
      }

      .cls-9 {
        fill: #f9f9f8;
      }

      .cls-10 {
        fill: #918d8b;
      }

      .cls-11 {
        fill: #938e8c;
      }

      .cls-12 {
        fill: #070707;
      }
    </style>
  </defs>
  <g id="Capa_1-2" data-name="Capa 1">
    <path class="cls-12" d="m23.89,224.81c14.76-13.5,28.77-27.78,43.14-41.69,2.62-2.53,2.3-3.92.95-7.53-2.57-6.88-7.09-9.31-13.28-11.95-14.05-5.98-23.23-16.99-27.82-31.64-.5-1.61-.42-3.4-.61-5.1-.58-4.59-.57-9.18,0-13.77,3.04-22.96,23.87-39.01,42.88-39.78,6.39-1.06,12.59-.06,18.7,1.77,3.14,1.31,6.3,2.62,9.21,4.41,1.06.79,2.46.8,3.53,1.57,4.67,2.94,8.99,6.2,10.41,10.37-.39-5.69-4.2-12.05-5.44-19.09.14-4.34,2.38-8.25,2.8-12.54-.15,3.75-2.34,7.02-2.64,10.74-.88,2.82-1.08,6.05-4.41,7.41-2.77-3.03,1.53-5.78-.05-7.99-1.25,2.66.54,7.22-3.13,9.97-3.08-1.62-6.15-3.29-9.4-4.58-5.23-1.55-10.48-2.97-16.03-2.41-1.41.14-2.77-.03-3.31-1.69-.03-.52.09-1.12-.12-1.55-5.53-11.49-.64-13.01,8.77-18.16,2.47-1.35,4.73-2.93,6.6-4.88.95-.99,3.75-2.61.23-4.67-2.02-1.18,1.95-2.38.71-4.45-1.02-.26-1.65.93-2.55,1.37-2.21,1.1-3.65,1.76-4.99-1.63-1.4-3.54-5.55-6.16-2.64-10.77.14-.22-.35-1.19-.49-1.17-5.22.52-3.48-3.48-3.52-5.81-.16-9.49.01-9.42,6.41-15.11,5.54-4.93,12.21-5.48,18.41-3.15,6.74,2.53,10.15,8.96,9.31,15.94-.56,4.61,3.41,8.21,1.56,12.75-.14.34,2.38,1.62,3.48,2.66,1.16,1.09,3.27,2.51-.32,3.28-1.98.43-.39.86,0,1.38,1.29,1.73,1.43,3.85,1.85,5.87-1.27,2.35-.01,4.31.99,6.3,4.64,5.94,3.14,13.53,5.37,20.07,3.8,11.14,4.62,22.59,5.24,34.2.25,4.72.93,9.68,3.96,14.04,1.83,2.65,2.39,3.49,4.95.85,7.28-7.47,14.83-14.67,22.27-21.98,14.38-14.14,28.73-28.31,43.18-42.38,1.13-1.1,2.36-4.06,4.38-1.97,1.74,1.81-.59,3.39-1.9,4.68-21.93,21.6-43.88,43.17-65.8,64.77-2.18,2.15-4.35,3.92-4.77,7.71-.62,5.64-6.17,7.18-10.64,8.93-5.56,2.18-7.8,5.95-5.74,11.39,1.38,3.64,3.13,7.14,4.92,11.16-3,.62-7.28-1.18-6.79,4.7.19,2.27-2.16-1.09-4.08-.15,1.1,5.11-.44,10.23-2.55,15.73-3.32-2.69-5.94-5.7-7.38-10.01,1.52,5.17-.6,9.01-2.98,13.28-2.04,3.66,1.75,7.75,1.88,11.86.05,1.51.63,3,.97,4.5.49,4.92.6,9.83-.05,14.74-2.14,11.55-2.61,23.56-.28,34.65,1.58,7.53,1.59,14.11.27,21.22-1.15,6.15-12.56,13.39-18.54,11.71q-5.59.25-2.69-7.92c9.9-12.07,8.74-25.53,5.87-39.6-2.37-11.63-5.42-23.28-4.62-35.32.34-5.08-.16-9.71-3.43-13.71-.93-1.13-.42-2.32-.79-3.42-.3-4.78-1.95-9.5-1.49-13.41-1.71,3.68,2.78,8.53.34,13.15-10.85,10.74-21.53,21.67-32.61,32.16-4.4,4.16-8.29,7.73-12.45,12.1"/>
    <circle class="cls-6" cx="72.26" cy="120.31" r="47.31"/>
    <circle class="cls-2" cx="72.26" cy="120.31" r="47.31"/>
    <path class="cls-3" d="m69.38,71.31c1.67,1.71,3.82,1.29,5.8,1.12,5.09-.43,9.78.76,14.29,2.99.1.43-.07.68-.5.75-6.42-2.26-13.09-2.72-19.82-2.81.08-.68.16-1.37.24-2.05Z"/>
    <path class="cls-10" d="m72.2,182.99c.48-4.82-1.75-9.51-.43-14.38.5,4.89,2.44,9.59,1.58,14.64-.39-.09-.77-.17-1.16-.26Z"/>
    <path class="cls-10" d="m113.11,49.51c-2.06-1.81-3.88-3.8-5.14-6.13,1.48-2.51,2.76,4.39,4.14-.17,1.99,1.84,1.26,4.11.99,6.3Z"/>
    <path class="cls-8" d="m97.57,215.63c.02-4.91.03-9.83.05-14.74,1.53,4.92,1.45,9.83-.05,14.74Z"/>
    <path class="cls-4" d="m73.99,104.17c4.15,9.56,8.25,18.99,12.34,28.41-3.55,1.36-4.97.2-6.06-3.75-.81-2.93-2.2-5.66-3.13-8.55-.73-2.28-1.96-5.55-4.08-9.42-1.61,3.92-2.78,7.12-3.63,9.31-1.13,2.9-2.21,5.65-3.29,8.39-.5,1.27-.84,2.71-1.69,3.72-.75.89-2.26,1.27-3.26.29-.81-.8-.23-1.7.43-2.64,4.36-6.21,6.86-13.34,9.48-20.35.73-1.96,1.54-3.66,2.89-5.4Z"/>
    <path class="cls-9" d="m106.7,72.57c.17,2.03.38,3.9,1.67,5.77,3.21,4.66,2.81,10.28,3.61,15.65-3.49-4.81-7.65-8.78-12.29-12.27-.83-2.01.59-3.03,1.81-4.14,1.11-2.36,2.22-4.73,3.33-7.09,2.06-.59,1.09,1.53,1.87,2.09Z"/>
    <path class="cls-1" d="m106.7,72.57c-.62-.7-1.25-1.39-1.87-2.09,1.13-3.91,2.25-7.82,3.72-12.89.61,5.96-1.96,10.3-1.85,14.97Z"/>
    <path class="cls-5" d="m101.49,77.58c-.6,1.38-1.2,2.76-1.81,4.14-1.16-.1-1.91-.78-2.43-1.77l.24-.24c3.18-2.71,1.9-6.92,3.52-10.21,1.93,2.58-1.06,5.49.47,8.08Z"/>
    <path class="cls-7" d="m94.66,90.23c-2.19-3.49-5.45-4.8-8.75-6.06-.04.04-.07.08-.11.12-.01-.04-.02-.08-.03-.12-6.17-1.63-12.3-3.78-18.78-1.47,0,0,0,0,0,0-15.45,1.43-35,17.17-32.06,42.93.43,2.79.63,5.66,2.77,7.9-.66-2.96-.24-6.11-1.75-8.9-1.28-23.9,16.02-38.67,32.17-40.76,5.6.05,11.23-.29,16.72,1.26.05.02.09.03.14.04-.05.05-.09.1-.14.15,3.28,1.63,6.55,3.26,9.83,4.89Z"/>
    <path class="cls-11" d="m89.46,75.42c3.05.73,5.92,1.81,8.03,4.29,0,0-.24.24-.24.24-2.77-1.26-5.53-2.52-8.29-3.78,0-.36.17-.61.5-.75Z"/>
    <path class="cls-2" d="m31.26,219.74c-.5-.65-.9-1.35-1.24-2.07l-4.84,4.55-15.56-16.56-9.62,9.04,15.56,16.56-3.87,3.64c-1.18,1.11-1.24,2.97-.13,4.15s2.96,1.24,4.15.13l3.87-3.64,15.56,16.56,9.62-9.04-15.56-16.56,4.65-4.37c-.96-.66-1.85-1.44-2.58-2.39Z"/>
    <path class="cls-2" d="m188.96,66.82c.5.64.91,1.34,1.26,2.06l4.8-4.6,15.72,16.41,9.53-9.13-15.72-16.41,3.83-3.67c1.17-1.12,1.21-2.98.09-4.15s-2.98-1.21-4.15-.09l-3.83,3.67-15.72-16.41-9.53,9.13,15.72,16.41-4.6,4.41c.97.65,1.86,1.42,2.6,2.36Z"/>
    <line class="cls-13" x1="69.7" y1="119.67" x2="77.37" y2="119.78"/>
  </g>
</svg>