<?xml version="1.0" encoding="UTF-8"?>
<svg id="Capa_2" data-name="Capa 2" xmlns="http://www.w3.org/2000/svg" xmlns:xlink="http://www.w3.org/1999/xlink" viewBox="0 0 285.39 388.91">
  <defs>
    <style>
      .cls-1 {
        fill: #a29e9b;
      }

      .cls-1, .cls-2, .cls-3, .cls-4, .cls-5, .cls-6, .cls-7, .cls-8, .cls-9, .cls-10, .cls-11, .cls-12, .cls-13 {
        stroke-width: 0px;
      }

      .cls-2 {
        fill: #b2afac;
      }

      .cls-3 {
        fill: #1d1e1c;
      }

      .cls-14 {
        clip-path: url(#clippath-2);
      }

      .cls-4 {
        fill: #9e9a99;
      }

      .cls-5, .cls-15 {
        fill: none;
      }

      .cls-16 {
        clip-path: url(#clippath-1);
      }

      .cls-15 {
        stroke: #1d1e1c;
        stroke-miterlimit: 11.84;
        stroke-width: 1.18px;
      }

      .cls-6 {
        fill: #fff;
      }

      .cls-7 {
        fill: #b5b1ad;
      }

      .cls-8 {
        fill: #acacaa;
      }

      .cls-9 {
        fill: #f9f9f8;
      }

      .cls-17 {
        clip-path: url(#clippath);
      }

      .cls-10 {
        fill: #918d8b;
      }

      .cls-11 {
        fill: #938e8c;
      }

      .cls-12 {
        fill: #e97eaf;
      }

      .cls-13 {
        fill: #ff66c4;
      }
    </style>
    <clipPath id="clippath">
      <rect class="cls-5" x="51.67" width="213.33" height="336"/>
    </clipPath>
    <clipPath id="clippath-1">
      <rect class="cls-5" x="24.39" y="242.51" width="53.95" height="57.33"/>
    </clipPath>
    <clipPath id="clippath-2">
      <rect class="cls-5" x="231.67" y="39.84" width="53.72" height="56"/>
    </clipPath>
  </defs>
  <g id="Capa_1-2" data-name="Capa 1">
    <g class="cls-17">
      <path class="cls-6" d="m52.73,266.48c17.48-16.01,34.08-32.93,51.1-49.42,3.1-2.99,2.72-4.65,1.13-8.92-3.04-8.16-8.4-11.04-15.73-14.17-16.64-7.09-27.52-20.14-32.95-37.51-.59-1.91-.49-4.03-.72-6.05-.69-5.44-.67-10.88,0-16.32,3.6-27.22,28.28-46.24,50.79-47.16,7.57-1.26,14.91-.07,22.15,2.1,3.72,1.55,7.46,3.1,10.91,5.23,1.26.93,2.92.95,4.18,1.86,5.53,3.48,10.65,7.35,12.33,12.29-.46-6.74-4.98-14.28-6.45-22.63.17-5.14,2.82-9.78,3.32-14.86-.18,4.45-2.77,8.32-3.13,12.73-1.04,3.34-1.28,7.17-5.22,8.78-3.28-3.59,1.81-6.85-.06-9.47-1.48,3.15.64,8.56-3.7,11.82-3.65-1.92-7.29-3.9-11.14-5.43-6.19-1.83-12.41-3.52-18.99-2.85-1.67.17-3.28-.04-3.92-2.01-.04-.61.1-1.33-.15-1.83-6.55-13.62-.76-15.42,10.39-21.53,2.93-1.6,5.6-3.47,7.82-5.79,1.13-1.17,4.44-3.09.27-5.54-2.39-1.4,2.31-2.82.84-5.28-1.21-.31-1.96,1.1-3.02,1.63-2.62,1.3-4.32,2.09-5.91-1.93-1.66-4.2-6.57-7.3-3.13-12.77.17-.26-.41-1.41-.58-1.39-6.18.61-4.12-4.13-4.17-6.89-.19-11.24.01-11.16,7.59-17.91,6.56-5.84,14.46-6.5,21.81-3.73,7.98,2.99,12.02,10.62,11.03,18.89-.66,5.47,4.04,9.73,1.85,15.11-.17.41,2.82,1.92,4.12,3.16,1.38,1.29,3.88,2.97-.38,3.89-2.35.51-.46,1.02,0,1.64,1.53,2.05,1.69,4.56,2.19,6.96-1.5,2.79-.01,5.11,1.18,7.47,5.49,7.04,3.72,16.04,6.36,23.79,4.5,13.2,5.47,26.78,6.2,40.54.3,5.59,1.1,11.47,4.69,16.64,2.17,3.14,2.83,4.14,5.86,1.01,8.62-8.85,17.56-17.39,26.38-26.06,17.04-16.76,34.03-33.56,51.15-50.23,1.34-1.3,2.8-4.81,5.19-2.33,2.06,2.15-.7,4.02-2.25,5.55-25.97,25.6-51.97,51.17-77.94,76.78-2.58,2.55-5.15,4.65-5.65,9.14-.73,6.68-7.31,8.51-12.6,10.58-6.59,2.58-9.24,7.05-6.8,13.5,1.64,4.32,3.71,8.46,5.83,13.23-3.55.73-8.62-1.4-8.04,5.57.22,2.69-2.56-1.29-4.83-.18,1.3,6.06-.52,12.13-3.02,18.65-3.93-3.19-7.04-6.76-8.74-11.87,1.8,6.13-.71,10.68-3.53,15.74-2.42,4.34,2.07,9.19,2.23,14.06.06,1.79.74,3.56,1.15,5.33.58,5.83.71,11.65-.06,17.47-2.54,13.69-3.09,27.93-.33,41.07,1.88,8.92,1.89,16.72.32,25.15-1.36,7.29-14.88,15.87-21.96,13.88-4.41.2-5.47-2.93-3.18-9.39,11.72-14.31,10.35-30.27,6.95-46.94-2.81-13.79-6.42-27.59-5.47-41.86.4-6.02-.19-11.51-4.06-16.26-1.1-1.34-.5-2.75-.94-4.05-.35-5.67-2.31-11.26-1.77-15.9-2.03,4.36,3.3,10.11.41,15.59-12.85,12.73-25.51,25.69-38.63,38.12-5.21,4.93-9.82,9.16-14.75,14.34"/>
    </g>
    <path class="cls-6" d="m166.06,142.61c0,1.83-.09,3.67-.27,5.49-.18,1.83-.45,3.64-.81,5.44s-.8,3.58-1.34,5.34c-.53,1.76-1.15,3.48-1.85,5.18-.7,1.7-1.49,3.35-2.35,4.97s-1.81,3.19-2.83,4.72c-1.02,1.53-2.11,3-3.28,4.42-1.16,1.42-2.4,2.78-3.69,4.08-1.3,1.3-2.66,2.53-4.07,3.7-1.42,1.16-2.89,2.26-4.42,3.28s-3.1,1.96-4.72,2.83c-1.62.87-3.28,1.65-4.97,2.35-1.7.7-3.42,1.32-5.18,1.85-1.76.54-3.54.98-5.34,1.34-1.8.36-3.61.63-5.44.81-1.83.18-3.66.27-5.49.27s-3.67-.09-5.49-.27c-1.83-.18-3.64-.45-5.44-.81-1.8-.36-3.58-.8-5.33-1.34-1.76-.53-3.48-1.15-5.18-1.85s-3.35-1.48-4.97-2.35c-1.62-.86-3.19-1.81-4.72-2.83s-3-2.11-4.42-3.28c-1.42-1.17-2.78-2.4-4.08-3.7s-2.53-2.66-3.69-4.08c-1.16-1.42-2.26-2.89-3.28-4.42-1.02-1.53-1.96-3.1-2.82-4.72s-1.65-3.28-2.35-4.97-1.32-3.42-1.85-5.18c-.53-1.76-.97-3.54-1.33-5.34s-.63-3.61-.81-5.44-.27-3.66-.27-5.49.09-3.67.27-5.5.45-3.64.81-5.44.8-3.58,1.33-5.34c.54-1.76,1.15-3.48,1.85-5.18s1.49-3.35,2.35-4.97,1.81-3.19,2.82-4.72c1.02-1.53,2.11-3,3.28-4.42,1.17-1.42,2.4-2.78,3.69-4.08,1.3-1.3,2.66-2.53,4.08-3.7,1.42-1.16,2.89-2.26,4.42-3.28s3.1-1.96,4.72-2.83c1.61-.86,3.27-1.65,4.97-2.35s3.42-1.32,5.18-1.85,3.54-.98,5.33-1.34c1.8-.35,3.61-.63,5.44-.81,1.82-.18,3.66-.27,5.49-.27s3.67.09,5.49.27c1.83.18,3.64.45,5.44.81,1.8.36,3.58.81,5.34,1.34,1.76.53,3.48,1.15,5.18,1.85,1.69.7,3.35,1.49,4.97,2.35s3.19,1.81,4.72,2.83,3,2.11,4.42,3.28c1.42,1.17,2.78,2.4,4.07,3.7s2.53,2.66,3.69,4.08c1.17,1.42,2.26,2.89,3.28,4.42,1.02,1.53,1.96,3.1,2.83,4.72s1.65,3.28,2.35,4.97c.7,1.7,1.32,3.43,1.85,5.18.54,1.76.98,3.54,1.34,5.34s.63,3.61.81,5.44c.18,1.83.27,3.66.27,5.5Z"/>
    <path class="cls-12" d="m166.06,142.61c0,1.83-.09,3.67-.27,5.49-.18,1.83-.45,3.64-.81,5.44s-.8,3.58-1.34,5.34c-.53,1.76-1.15,3.48-1.85,5.18-.7,1.7-1.49,3.35-2.35,4.97s-1.81,3.19-2.83,4.72c-1.02,1.53-2.11,3-3.28,4.42-1.16,1.42-2.4,2.78-3.69,4.08-1.3,1.3-2.66,2.53-4.07,3.7-1.42,1.16-2.89,2.26-4.42,3.28s-3.1,1.96-4.72,2.83c-1.62.87-3.28,1.65-4.97,2.35-1.7.7-3.42,1.32-5.18,1.85-1.76.54-3.54.98-5.34,1.34-1.8.36-3.61.63-5.44.81-1.83.18-3.66.27-5.49.27s-3.67-.09-5.49-.27c-1.83-.18-3.64-.45-5.44-.81-1.8-.36-3.58-.8-5.33-1.34-1.76-.53-3.48-1.15-5.18-1.85s-3.35-1.48-4.97-2.35c-1.62-.86-3.19-1.81-4.72-2.83s-3-2.11-4.42-3.28c-1.42-1.17-2.78-2.4-4.08-3.7s-2.53-2.66-3.69-4.08c-1.16-1.42-2.26-2.89-3.28-4.42-1.02-1.53-1.96-3.1-2.82-4.72s-1.65-3.28-2.35-4.97-1.32-3.42-1.85-5.18c-.53-1.76-.97-3.54-1.33-5.34s-.63-3.61-.81-5.44-.27-3.66-.27-5.49.09-3.67.27-5.5.45-3.64.81-5.44.8-3.58,1.33-5.34c.54-1.76,1.15-3.48,1.85-5.18s1.49-3.35,2.35-4.97,1.81-3.19,2.82-4.72c1.02-1.53,2.11-3,3.28-4.42,1.17-1.42,2.4-2.78,3.69-4.08,1.3-1.3,2.66-2.53,4.08-3.7,1.42-1.16,2.89-2.26,4.42-3.28s3.1-1.96,4.72-2.83c1.61-.86,3.27-1.65,4.97-2.35s3.42-1.32,5.18-1.85,3.54-.98,5.33-1.34c1.8-.35,3.61-.63,5.44-.81,1.82-.18,3.66-.27,5.49-.27s3.67.09,5.49.27c1.83.18,3.64.45,5.44.81,1.8.36,3.58.81,5.34,1.34,1.76.53,3.48,1.15,5.18,1.85,1.69.7,3.35,1.49,4.97,2.35s3.19,1.81,4.72,2.83,3,2.11,4.42,3.28c1.42,1.17,2.78,2.4,4.07,3.7s2.53,2.66,3.69,4.08c1.17,1.42,2.26,2.89,3.28,4.42,1.02,1.53,1.96,3.1,2.83,4.72s1.65,3.28,2.35,4.97c.7,1.7,1.32,3.43,1.85,5.18.54,1.76.98,3.54,1.34,5.34s.63,3.61.81,5.44c.18,1.83.27,3.66.27,5.5Z"/>
    <path class="cls-2" d="m106.61,84.53c1.98,2.03,4.53,1.53,6.87,1.33,6.03-.51,11.59.9,16.93,3.54.12.51-.08.81-.59.89-7.61-2.68-15.51-3.22-23.48-3.33.09-.8.19-1.62.29-2.43h-.02Z"/>
    <path class="cls-10" d="m109.95,216.91c.57-5.71-2.07-11.28-.51-17.05.59,5.8,2.89,11.37,1.87,17.35-.46-.11-.91-.2-1.38-.31h.02Z"/>
    <path class="cls-10" d="m158.41,58.68c-2.44-2.15-4.59-4.5-6.09-7.27,1.76-2.97,3.27,5.2,4.91-.2,2.36,2.18,1.49,4.87,1.17,7.46h.01Z"/>
    <path class="cls-8" d="m140,255.59c.03-5.82.04-11.65.06-17.47,1.81,5.83,1.71,11.65-.06,17.47Z"/>
    <path class="cls-3" d="m112.07,123.47c4.92,11.33,9.77,22.51,14.61,33.68-4.2,1.61-5.89.24-7.18-4.44-.96-3.47-2.6-6.71-3.71-10.14-.86-2.7-2.32-6.58-4.83-11.17-1.91,4.65-3.29,8.44-4.3,11.04-1.34,3.44-2.62,6.7-3.9,9.94-.59,1.51-.99,3.21-2.01,4.41-.89,1.05-2.68,1.51-3.86.34-.96-.95-.27-2.02.51-3.13,5.16-7.36,8.13-15.81,11.23-24.12.86-2.32,1.82-4.34,3.42-6.4v-.02Z"/>
    <path class="cls-9" d="m150.82,86.02c.2,2.41.45,4.62,1.97,6.84,3.8,5.52,3.33,12.18,4.28,18.55-4.13-5.7-9.06-10.41-14.56-14.55-.98-2.38.7-3.59,2.15-4.91,1.32-2.8,2.63-5.61,3.94-8.41,2.44-.7,1.29,1.81,2.22,2.48h0Z"/>
    <path class="cls-1" d="m150.82,86.02c-.73-.83-1.48-1.65-2.22-2.48,1.34-4.64,2.67-9.27,4.41-15.28.72,7.07-2.32,12.21-2.19,17.74v.02Z"/>
    <path class="cls-4" d="m144.65,91.96c-.71,1.64-1.42,3.27-2.15,4.91-1.38-.12-2.26-.93-2.88-2.1l.28-.28c3.77-3.21,2.25-8.2,4.17-12.1,2.29,3.06-1.26,6.51.56,9.58h.01Z"/>
    <path class="cls-7" d="m136.56,106.95c-2.6-4.14-6.46-5.69-10.36-7.18-.05.05-.08.09-.13.14-.02-.05-.03-.09-.04-.14-7.31-1.93-14.57-4.48-22.24-1.74-18.3,1.69-41.46,20.35-37.97,50.89.51,3.31.74,6.71,3.28,9.36-.78-3.51-.29-7.24-2.07-10.55-1.52-28.33,18.97-45.84,38.1-48.32,6.63.06,13.3-.34,19.8,1.49.06.03.11.04.17.05-.06.06-.1.12-.17.18,3.89,1.93,7.76,3.86,11.65,5.8v.03Z"/>
    <path class="cls-11" d="m130.4,89.4c3.61.86,7.01,2.15,9.51,5.09l-.28.28c-3.28-1.49-6.55-2.98-9.82-4.48,0-.43.2-.72.59-.89Z"/>
    <g class="cls-16">
      <path class="cls-12" d="m61.46,260.47c-.59-.77-1.06-1.6-1.47-2.45l-5.73,5.39-18.43-19.63-11.4,10.72,18.43,19.63-4.58,4.32c-1.4,1.31-1.47,3.52-.16,4.92,1.32,1.4,3.51,1.47,4.92.16l4.58-4.31,18.43,19.63,11.39-10.71-18.43-19.63,5.51-5.18c-1.14-.79-2.19-1.71-3.06-2.83h-.01Z"/>
    </g>
    <g class="cls-14">
      <path class="cls-12" d="m248.25,79.2c.59.76,1.08,1.59,1.49,2.44l5.68-5.45,18.62,19.45,11.29-10.82-18.62-19.45,4.54-4.35c1.39-1.33,1.43-3.53.1-4.92-1.33-1.39-3.53-1.43-4.92-.1l-4.54,4.35-18.62-19.45-11.29,10.82,18.62,19.45-5.45,5.23c1.15.77,2.2,1.68,3.08,2.8h0Z"/>
    </g>
    <path class="cls-15" d="m106.99,141.85l9.08.13"/>
    <path class="cls-6" d="m16.6,352.68l2.75,35.29c0,.36-.2.56-.6.58l-4.9.21c-.33,0-.5-.15-.5-.46l-.35-7.73-5.31.21-1.77,7.21c-.04.22-.1.38-.19.46-.07.07-.21.12-.42.15l-4.85.17c-.31,0-.46-.15-.46-.46l10.29-35.46c.09-.34.3-.53.63-.54l5.15-.19c.33.02.51.2.54.56Zm-4.42,9.67l-3.29,13.44,3.9-.13-.6-13.31Z"/>
    <path class="cls-6" d="m33.08,352.41l15.19-.54c.34.02.52.21.52.58l-.6,4.79c-.03.24-.08.41-.15.5-.07.1-.22.16-.44.17l-4.54.17-3.42,29.92c-.06.38-.27.58-.63.6l-4.88.17c-.31,0-.46-.15-.46-.46l3.44-30.04-4.67.15c-.39-.03-.58-.21-.58-.54l.58-4.88c.01-.38.22-.57.63-.58Z"/>
    <path class="cls-6" d="m70.78,372.62l-7.29.29-1.1,9.6,8.98-.29c.4.02.6.22.6.6l-.6,4.85c-.04.32-.25.52-.63.6l-14.4.48c-.35,0-.52-.15-.52-.46l4.04-35.46c.07-.33.28-.51.63-.54l12.83-.44c.39.04.58.25.58.63l-.58,4.85c-.04.39-.24.6-.6.63l-7.54.21-1.02,8.73,7.23-.25c.4.02.6.22.6.6l-.6,4.77c-.07.36-.27.56-.6.58Z"/>
    <path class="cls-6" d="m105.77,352.62l-4.02,35.29c-.07.36-.28.56-.63.58l-4.63.27c-.28,0-.44-.15-.48-.46l-4.92-25.02-1.73,24.71c-.03.38-.24.58-.63.6l-4.81.17c-.35,0-.52-.15-.52-.46l4.04-35.46c.07-.33.28-.51.63-.54l4.75-.25c.22,0,.36.04.44.13.07.08.13.23.17.44l4.77,23.65,1.63-23.42c.03-.34.24-.53.65-.54l4.67-.25c.42,0,.63.19.63.56Z"/>
    <path class="cls-6" d="m130.19,372.62l-7.29.29-1.1,9.6,8.98-.29c.4.02.6.22.6.6l-.6,4.85c-.04.32-.25.52-.63.6l-14.4.48c-.35,0-.52-.15-.52-.46l4.04-35.46c.07-.33.28-.51.63-.54l12.83-.44c.39.04.58.25.58.63l-.58,4.85c-.04.39-.24.6-.6.63l-7.54.21-1.02,8.73,7.23-.25c.4.02.6.22.6.6l-.6,4.77c-.07.36-.27.56-.6.58Z"/>
    <path class="cls-6" d="m157.53,352.68l2.75,35.29c0,.36-.2.56-.6.58l-4.9.21c-.33,0-.5-.15-.5-.46l-.35-7.73-5.31.21-1.77,7.21c-.04.22-.1.38-.19.46-.07.07-.21.12-.42.15l-4.85.17c-.31,0-.46-.15-.46-.46l10.29-35.46c.09-.34.3-.53.63-.54l5.15-.19c.33.02.51.2.54.56Zm-4.42,9.67l-3.29,13.44,3.9-.13-.6-13.31Z"/>
    <path class="cls-13" d="m205.39,357.78l-3.94-.4c-1.42,0-2.52.35-3.29,1.04-.83.77-1.45,2.24-1.83,4.42-.39,2.18-.77,5.08-1.13,8.71-.36,3.61-.54,6.22-.54,7.81s.26,2.73.77,3.4c.51.67,1.13,1,1.83,1s1.3,0,1.73-.02l1.56-13.29c.05-.34.26-.53.6-.56l4.4-.17c.43.02.65.2.65.56l-1.98,17.58c-.06.33-.27.53-.63.58-2.08.3-4.62.46-7.6.46-3.57,0-5.86-1.72-6.88-5.17-.29-.96-.44-1.9-.44-2.83s.03-2.05.1-3.33c.18-4.59.73-9.36,1.65-14.29.59-3.44,1.34-5.86,2.25-7.25.93-1.46,2.05-2.47,3.38-3.04,1.64-.72,3.4-1.08,5.27-1.08s3.13.06,3.75.17c.63.1.97.16,1.04.17.19.06.29.25.29.58l-.52,4.35c-.06.41-.22.6-.5.6Z"/>
    <path class="cls-13" d="m223.88,352.59l2.67,13.38,4.81-13.13c.13-.34.32-.53.58-.54l4.83-.17c.18.02.32.08.44.19.13.11.19.23.19.35l-8.73,19.54-1.81,15.77c-.04.38-.24.58-.6.6l-4.83.17c-.35,0-.52-.15-.52-.46l1.77-15.56-4.79-20.06c0-.22.21-.34.63-.38l4.77-.19c.34.02.55.18.6.48Z"/>
    <path class="cls-13" d="m253.64,388.3l-1.98-28.06-1.75,27.73c-.04.39-.25.6-.63.63l-4.46.17c-.35-.04-.52-.19-.52-.46l4.02-35.46c.04-.19.09-.32.17-.4.07-.08.22-.13.46-.15l5.9-.21c.38.02.57.2.6.56l2.15,28.21,8.13-28.02c.08-.34.3-.53.67-.54l6.15-.21c.4.02.6.2.6.56l-4,35.33c-.04.38-.25.58-.63.6l-4.83.17c-.32,0-.48-.15-.48-.46l4.56-28.56-8.4,28.29c-.13.35-.35.54-.67.56l-4.56.17c-.31-.04-.47-.19-.5-.46Z"/>
  </g>
</svg>