<?xml version="1.0" encoding="UTF-8"?>
<svg id="Capa_2" data-name="Capa 2" xmlns="http://www.w3.org/2000/svg" viewBox="0 0 172.26 221.69">
  <defs>
    <style>
      .cls-1 {
        fill: #fff;
      }

      .cls-2 {
        fill: #201b18;
      }

      .cls-3 {
        fill: #938f8c;
      }

      .cls-4 {
        fill: #b3afac;
      }

      .cls-5 {
        fill: #efa2c2;
        opacity: .5;
      }

      .cls-6 {
        fill: none;
        stroke: #1d1d1b;
        stroke-miterlimit: 10;
      }

      .cls-7 {
        fill: #9e9b99;
      }

      .cls-8 {
        fill: #f9f9f8;
      }

      .cls-9 {
        fill: #a39f9c;
      }

      .cls-10 {
        fill: #adadab;
      }

      .cls-11 {
        fill: #b6b1ae;
      }

      .cls-12 {
        fill: #95908d;
      }

      .cls-13 {
        fill: #1d1d1b;
      }
    </style>
  </defs>
  <g id="Capa_1-2" data-name="Capa 1">
    <g>
      <path class="cls-2" d="m18.69,175.82c11.54-10.56,22.5-21.73,33.74-32.6,2.05-1.98,1.8-3.07.75-5.89-2.01-5.38-5.54-7.28-10.39-9.35-10.99-4.68-18.17-13.29-21.76-24.74-.39-1.26-.33-2.66-.47-3.99-.45-3.59-.44-7.18,0-10.77,2.38-17.96,18.67-30.51,33.53-31.11,5-.83,9.85-.05,14.63,1.39,2.46,1.03,4.92,2.05,7.21,3.45.83.62,1.93.63,2.76,1.23,3.65,2.3,7.03,4.85,8.14,8.11-.3-4.45-3.29-9.42-4.25-14.93.11-3.4,1.86-6.45,2.19-9.8-.11,2.93-1.83,5.49-2.07,8.4-.69,2.21-.85,4.73-3.45,5.79-2.17-2.37,1.2-4.52-.04-6.25-.98,2.08.43,5.65-2.45,7.8-2.41-1.27-4.81-2.57-7.35-3.58-4.09-1.21-8.19-2.32-12.54-1.88-1.1.11-2.16-.02-2.59-1.32-.02-.41.07-.87-.09-1.21-4.32-8.99-.5-10.17,6.86-14.2,1.93-1.06,3.7-2.29,5.16-3.82.74-.77,2.94-2.04.18-3.65-1.58-.92,1.52-1.86.56-3.48-.79-.2-1.29.72-1.99,1.07-1.73.86-2.85,1.38-3.9-1.27-1.09-2.77-4.34-4.82-2.06-8.42.11-.17-.28-.93-.38-.92-4.08.41-2.72-2.72-2.75-4.54-.13-7.42.01-7.36,5.01-11.82,4.33-3.86,9.55-4.29,14.4-2.47,5.27,1.98,7.94,7.01,7.28,12.47-.43,3.6,2.67,6.42,1.22,9.97-.11.27,1.86,1.27,2.72,2.08.9.85,2.56,1.96-.25,2.57-1.55.33-.3.67,0,1.08,1.01,1.35,1.12,3.01,1.45,4.59-.99,1.84,0,3.37.78,4.93,3.63,4.65,2.46,10.58,4.2,15.7,2.97,8.71,3.61,17.66,4.1,26.75.2,3.69.73,7.57,3.09,10.98,1.43,2.07,1.87,2.73,3.87.67,5.69-5.84,11.6-11.47,17.41-17.19,11.25-11.06,22.47-22.14,33.77-33.14.88-.86,1.85-3.18,3.42-1.54,1.36,1.41-.46,2.65-1.48,3.66-17.15,16.89-34.32,33.76-51.46,50.66-1.7,1.68-3.4,3.07-3.73,6.03-.48,4.41-4.82,5.61-8.32,6.99-4.35,1.7-6.1,4.65-4.49,8.9,1.08,2.85,2.45,5.59,3.85,8.73-2.34.49-5.69-.92-5.31,3.67.15,1.78-1.69-.85-3.19-.12.86,4-.34,8-1.99,12.3-2.6-2.11-4.64-4.46-5.77-7.83,1.19,4.05-.47,7.04-2.33,10.39-1.59,2.86,1.37,6.06,1.47,9.27.04,1.18.49,2.35.76,3.52.38,3.84.47,7.69-.04,11.53-1.67,9.03-2.04,18.43-.22,27.1,1.23,5.89,1.24,11.04.21,16.6-.9,4.81-9.82,10.48-14.5,9.16q-4.37.19-2.1-6.19c7.74-9.44,6.84-19.96,4.59-30.97-1.86-9.09-4.24-18.21-3.62-27.62.26-3.97-.12-7.6-2.68-10.72-.72-.88-.33-1.81-.62-2.68-.23-3.74-1.52-7.43-1.17-10.49-1.33,2.88,2.17,6.67.26,10.29-8.48,8.4-16.84,16.95-25.5,25.15-3.44,3.26-6.48,6.05-9.73,9.47"/>
      <circle class="cls-1" cx="56.51" cy="94.09" r="37"/>
      <circle class="cls-5" cx="56.51" cy="94.09" r="37"/>
      <path class="cls-4" d="m54.26,55.77c1.3,1.34,2.99,1.01,4.53.88,3.98-.34,7.65.59,11.17,2.34.08.34-.05.53-.39.59-5.02-1.77-10.24-2.12-15.5-2.2.06-.53.13-1.07.19-1.6Z"/>
      <path class="cls-3" d="m56.47,143.11c.38-3.77-1.37-7.44-.33-11.25.39,3.82,1.91,7.5,1.24,11.45-.3-.07-.6-.14-.9-.2Z"/>
      <path class="cls-3" d="m88.46,38.72c-1.61-1.41-3.03-2.97-4.02-4.8,1.15-1.96,2.16,3.44,3.24-.13,1.56,1.44.98,3.21.78,4.93Z"/>
      <path class="cls-10" d="m76.3,168.64c.01-3.84.02-7.69.04-11.53,1.19,3.85,1.13,7.69-.04,11.53Z"/>
      <path class="cls-13" d="m57.87,81.47c3.25,7.48,6.45,14.85,9.65,22.22-2.78,1.06-3.89.16-4.74-2.94-.63-2.29-1.72-4.43-2.45-6.69-.57-1.78-1.53-4.34-3.19-7.37-1.26,3.07-2.17,5.57-2.84,7.28-.89,2.27-1.73,4.42-2.57,6.56-.39,1-.66,2.12-1.32,2.91-.59.7-1.76,1-2.55.22-.63-.63-.18-1.33.34-2.07,3.41-4.85,5.37-10.43,7.41-15.91.57-1.53,1.2-2.86,2.26-4.22Z"/>
      <path class="cls-8" d="m83.44,56.75c.13,1.59.3,3.05,1.3,4.51,2.51,3.65,2.2,8.04,2.83,12.24-2.73-3.76-5.98-6.87-9.61-9.6-.65-1.57.46-2.37,1.41-3.24l2.61-5.55c1.61-.46.86,1.19,1.46,1.63Z"/>
      <path class="cls-9" d="m83.44,56.75c-.49-.54-.97-1.09-1.46-1.63.88-3.06,1.76-6.12,2.91-10.08.48,4.66-1.53,8.06-1.44,11.71Z"/>
      <path class="cls-7" d="m79.37,60.67c-.47,1.08-.94,2.16-1.41,3.24-.91-.08-1.5-.61-1.9-1.38l.19-.19c2.48-2.12,1.49-5.41,2.75-7.99,1.51,2.02-.83,4.3.37,6.32Z"/>
      <path class="cls-11" d="m74.03,70.57c-1.71-2.73-4.26-3.76-6.84-4.74-.03.03-.06.06-.09.09,0-.03-.02-.06-.03-.09-4.83-1.28-9.62-2.96-14.69-1.15,0,0,0,0,0,0-12.08,1.12-27.37,13.43-25.07,33.57.33,2.18.49,4.42,2.17,6.18-.52-2.32-.18-4.78-1.37-6.96-1-18.69,12.53-30.25,25.16-31.88,4.38.04,8.78-.22,13.08.99.04.02.07.02.11.03-.04.04-.07.08-.11.12,2.56,1.28,5.12,2.55,7.68,3.83Z"/>
      <path class="cls-12" d="m69.97,58.98c2.38.57,4.63,1.41,6.28,3.35,0,0-.19.19-.19.19-2.16-.99-4.32-1.97-6.49-2.96,0-.28.14-.47.39-.58Z"/>
      <path class="cls-2" d="m24.45,171.85c-.39-.51-.7-1.05-.97-1.62l-3.79,3.56-12.17-12.95-7.52,7.07,12.17,12.95-3.03,2.84c-.92.87-.97,2.32-.1,3.24s2.32.97,3.24.1l3.03-2.84,12.17,12.95,7.52-7.07-12.17-12.95,3.63-3.41c-.75-.52-1.45-1.12-2.02-1.87Z"/>
      <path class="cls-2" d="m147.78,52.25c.39.5.71,1.05.98,1.61l3.75-3.6,12.29,12.83,7.45-7.14-12.29-12.83,3-2.87c.92-.88.95-2.33.07-3.24s-2.33-.94-3.24-.07l-3,2.87-12.29-12.83-7.45,7.14,12.29,12.83-3.6,3.45c.76.51,1.46,1.11,2.03,1.85Z"/>
      <line class="cls-6" x1="54.51" y1="93.59" x2="60.51" y2="93.67"/>
    </g>
  </g>
</svg>